<svg width="19" height="15" viewBox="0 0 19 15" fill="none" xmlns="http://www.w3.org/2000/svg">
<path d="M17.1161 3.722C17.1241 3.884 17.1271 4.04801 17.1271 4.21001C17.1271 9.2 13.3301 14.952 6.3871 14.952C4.2541 14.952 2.2711 14.327 0.600098 13.255C1.58847 13.3745 2.59071 13.2981 3.54954 13.0301C4.50836 12.7621 5.40496 12.3077 6.1881 11.693C5.40052 11.6781 4.63727 11.4175 4.00508 10.9476C3.37288 10.4776 2.90334 9.82188 2.6621 9.07201C3.22816 9.17786 3.81074 9.15565 4.3671 9.00701C3.51271 8.83376 2.7445 8.37044 2.19264 7.69557C1.64079 7.0207 1.33924 6.17578 1.3391 5.30401V5.25701C1.86329 5.5486 2.44956 5.71077 3.0491 5.73C2.24897 5.19659 1.68257 4.37792 1.46551 3.44111C1.24845 2.50429 1.39709 1.51996 1.8811 0.689005C2.82889 1.85547 4.01145 2.80951 5.35197 3.48916C6.6925 4.16881 8.161 4.55887 9.6621 4.63401C9.59716 4.35162 9.56461 4.06276 9.5651 3.77301C9.5651 3.27744 9.66272 2.78674 9.8524 2.32891C10.0421 1.87108 10.3201 1.45511 10.6705 1.10474C11.021 0.754369 11.437 0.476473 11.8949 0.286921C12.3528 0.0973684 12.8435 -0.00012633 13.3391 5.01386e-06C13.8556 -0.000837245 14.3667 0.104445 14.8408 0.309321C15.3149 0.514196 15.7418 0.814296 16.0951 1.191C16.9402 1.0237 17.7508 0.713958 18.4921 0.275005C18.2101 1.14921 17.6202 1.89123 16.8321 2.36301C17.5804 2.2743 18.3111 2.07408 19.0001 1.76901C18.494 2.52744 17.8558 3.18892 17.1161 3.722Z" fill="white"/>
</svg>
