<svg width="19" height="16" viewBox="0 0 19 16" fill="none" xmlns="http://www.w3.org/2000/svg">
<path d="M12.5802 9.109C11.8622 9.109 11.2802 9.916 11.2802 10.908C11.2802 11.902 11.8622 12.709 12.5802 12.709C13.2982 12.709 13.8802 11.902 13.8802 10.908C13.8792 9.916 13.2982 9.109 12.5802 9.109ZM17.1062 4.426C17.2552 4.061 17.2612 1.987 16.4712 0C16.4712 0 14.6602 0.199 11.9202 2.08C11.3452 1.92 10.3722 1.842 9.4012 1.842C8.4282 1.842 7.45619 1.92 6.8812 2.08C4.1402 0.199 2.3292 0 2.3292 0C1.5402 1.987 1.5482 4.061 1.6952 4.426C0.767195 5.434 0.200195 6.645 0.200195 8.297C0.200195 15.483 6.1632 15.598 7.6672 15.598L9.4012 15.6L11.1332 15.598C12.6392 15.598 18.6002 15.483 18.6002 8.297C18.6002 6.645 18.0342 5.434 17.1062 4.426ZM9.42819 14.715H9.3722C5.6012 14.715 2.6632 14.266 2.6632 10.6C2.6632 9.721 2.9732 8.907 3.7102 8.231C4.9372 7.104 7.01519 7.7 9.3722 7.7H9.42819C11.7852 7.7 13.8642 7.104 15.0922 8.231C15.8272 8.907 16.1372 9.721 16.1372 10.6C16.1372 14.266 13.2002 14.715 9.42819 14.715ZM6.2212 9.109C5.5032 9.109 4.9212 9.916 4.9212 10.908C4.9212 11.902 5.5032 12.709 6.2212 12.709C6.9402 12.709 7.52219 11.902 7.52219 10.908C7.52219 9.916 6.9402 9.109 6.2212 9.109Z" fill="white"/>
</svg>
