<svg width="18" height="18" viewBox="0 0 18 18" fill="none" xmlns="http://www.w3.org/2000/svg">
<path d="M8.8 2.27397e-07C7.64429 -0.000262523 6.49986 0.227177 5.43208 0.669325C4.36429 1.11147 3.39408 1.75967 2.57687 2.57687C1.75967 3.39408 1.11147 4.36429 0.669325 5.43208C0.227177 6.49986 -0.000262523 7.64429 2.27397e-07 8.8C2.27397e-07 10.5405 0.516111 12.2419 1.48307 13.689C2.45002 15.1362 3.8244 16.2641 5.43239 16.9301C7.04038 17.5962 8.80976 17.7705 10.5168 17.4309C12.2238 17.0914 13.7918 16.2532 15.0225 15.0225C16.2532 13.7918 17.0914 12.2238 17.4309 10.5168C17.7705 8.80976 17.5962 7.04038 16.9301 5.43239C16.2641 3.8244 15.1362 2.45002 13.689 1.48307C12.2419 0.516111 10.5405 2.27397e-07 8.8 2.27397e-07ZM12.278 13.302C12.105 13.302 11.984 13.236 11.857 13.159C10.668 12.438 9.195 12.06 7.599 12.06C6.785 12.06 5.906 12.157 4.989 12.345L4.877 12.373C4.761 12.401 4.642 12.432 4.551 12.432C4.46425 12.4333 4.37811 12.4173 4.29764 12.3849C4.21716 12.3525 4.14399 12.3043 4.0824 12.2431C4.02082 12.182 3.97208 12.1092 3.93904 12.029C3.906 11.9488 3.88932 11.8628 3.89 11.776C3.89 11.403 4.1 11.139 4.452 11.073C5.48522 10.8302 6.54265 10.7054 7.604 10.701C9.459 10.701 11.117 11.131 12.535 11.98C12.778 12.122 12.931 12.286 12.931 12.648C12.9307 12.8212 12.8619 12.9872 12.7395 13.1098C12.6171 13.2324 12.4512 13.3015 12.278 13.302ZM13.191 10.741C12.984 10.741 12.848 10.662 12.728 10.592C10.585 9.321 7.395 8.899 4.767 9.599C4.7268 9.61066 4.68679 9.623 4.647 9.636C4.548 9.667 4.456 9.698 4.326 9.698C4.11771 9.69721 3.91826 9.61377 3.77145 9.46602C3.62463 9.31827 3.54247 9.11829 3.543 8.91C3.543 8.491 3.762 8.198 4.157 8.086C5.17 7.808 6.121 7.624 7.49 7.624C9.702 7.624 11.847 8.179 13.528 9.185C13.834 9.36 13.973 9.599 13.973 9.956C13.9733 10.1638 13.8911 10.3631 13.7444 10.5103C13.5978 10.6575 13.3988 10.7405 13.191 10.741ZM14.227 7.821C14.032 7.821 13.912 7.774 13.732 7.677C12.279 6.805 10.012 6.286 7.663 6.286C6.439 6.286 5.327 6.421 4.357 6.683C4.32412 6.6912 4.29144 6.7002 4.259 6.71C4.14128 6.75027 4.01832 6.77318 3.894 6.778C3.77228 6.77868 3.65165 6.75504 3.53919 6.70847C3.42672 6.6619 3.3247 6.59334 3.23909 6.5068C3.15349 6.42027 3.08603 6.31751 3.04068 6.20455C2.99533 6.09159 2.973 5.97071 2.975 5.849C2.975 5.396 3.229 5.05 3.655 4.924C4.826 4.578 6.174 4.403 7.661 4.403C10.339 4.403 12.887 4.998 14.652 6.034C14.984 6.223 15.147 6.509 15.147 6.906C15.1479 7.02684 15.1248 7.14666 15.0788 7.25843C15.0328 7.37019 14.965 7.47166 14.8793 7.55688C14.7936 7.6421 14.6918 7.70936 14.5798 7.75471C14.4678 7.80006 14.3478 7.8226 14.227 7.821Z" fill="white"/>
</svg>
