<svg width="19" height="18" viewBox="0 0 19 18" fill="none" xmlns="http://www.w3.org/2000/svg">
<path d="M18.6001 16V2C18.6001 0.9 17.6971 0 16.5951 0H2.6051C1.4551 0 0.600098 0.853 0.600098 2V16C0.600098 17.148 1.4551 18 2.6051 18H16.5951C17.1257 17.9992 17.6345 17.7884 18.0102 17.4136C18.3859 17.0389 18.598 16.5306 18.6001 16ZM14.7841 10.607C14.7841 10.607 15.9161 11.724 16.1951 12.242C16.2031 12.253 16.2061 12.263 16.2091 12.267C16.3221 12.457 16.3511 12.607 16.2941 12.717C16.2001 12.9 15.8801 12.992 15.7711 13H13.7721C13.6321 13 13.3421 12.964 12.9901 12.721C12.7201 12.533 12.4531 12.222 12.1931 11.919C11.8051 11.469 11.4691 11.079 11.1311 11.079C11.0882 11.0789 11.0456 11.086 11.0051 11.1C10.7481 11.182 10.4221 11.547 10.4221 12.522C10.4221 12.827 10.1821 13.001 10.0121 13.001H9.0961C8.7841 13.001 7.1591 12.892 5.7201 11.373C3.9541 9.513 2.3681 5.782 2.3541 5.749C2.2541 5.508 2.4611 5.377 2.6861 5.377H4.7061C4.9771 5.377 5.0641 5.541 5.1261 5.688C5.1961 5.855 5.4601 6.529 5.8921 7.287C6.5951 8.52 7.0281 9.022 7.3731 9.022C7.43761 9.02164 7.50095 9.00477 7.5571 8.973C8.0081 8.724 7.9241 7.116 7.9041 6.784C7.9041 6.721 7.9031 6.065 7.6731 5.75C7.5071 5.522 7.2261 5.435 7.0561 5.402C7.12542 5.30648 7.21664 5.22898 7.3221 5.176C7.6311 5.022 8.1881 5 8.7421 5H9.0501C9.6511 5.008 9.8071 5.047 10.0241 5.102C10.4631 5.207 10.4721 5.492 10.4331 6.462C10.4221 6.738 10.4101 7.051 10.4101 7.418C10.4101 7.497 10.4071 7.584 10.4071 7.674C10.3931 8.17 10.3771 8.731 10.7271 8.961C10.7724 8.98934 10.8247 9.00457 10.8781 9.005C11.0001 9.005 11.3651 9.005 12.3541 7.308C12.7891 6.559 13.1241 5.675 13.1471 5.609C13.182 5.53764 13.2326 5.47509 13.2951 5.426C13.3463 5.39939 13.4034 5.38599 13.4611 5.387H15.8361C16.0961 5.387 16.2721 5.426 16.3051 5.525C16.3621 5.684 16.2941 6.169 15.2091 7.635L14.7261 8.275C13.7421 9.563 13.7421 9.629 14.7841 10.607Z" fill="white"/>
</svg>
