<svg width="335" height="126" viewBox="0 0 335 126" fill="none" xmlns="http://www.w3.org/2000/svg">
<path d="M148.095 119H151.155V114.554C151.155 112.934 150.885 111.098 150.741 109.604H150.831L152.145 112.538L155.457 119H158.733V105.59H155.673V110.036C155.673 111.638 155.943 113.564 156.105 114.986H156.015L154.701 112.016L151.371 105.59H148.095V119ZM161.841 119H170.535V116.3H165.063V113.456H169.545V110.756H165.063V108.272H170.337V105.59H161.841V119ZM174.331 119H178.309L179.479 113.168C179.677 112.142 179.839 111.062 180.019 110.054H180.091C180.217 111.062 180.397 112.142 180.613 113.168L181.819 119H185.869L188.191 105.59H185.149L184.267 111.71C184.105 113.096 183.925 114.518 183.763 115.958H183.673C183.403 114.518 183.169 113.078 182.899 111.71L181.513 105.59H178.795L177.427 111.71C177.157 113.096 176.887 114.518 176.635 115.958H176.563C176.383 114.518 176.203 113.114 176.023 111.71L175.177 105.59H171.901L174.331 119Z" fill="white"/>
<path fill-rule="evenodd" clip-rule="evenodd" d="M168 20C170.209 20 172 21.7908 172 24V72C172 74.2091 170.209 76 168 76C165.791 76 164 74.2091 164 72V24C164 21.7908 165.791 20 168 20Z" fill="white"/>
<path fill-rule="evenodd" clip-rule="evenodd" d="M140 48C140 45.7908 141.791 44 144 44H192C194.209 44 196 45.7908 196 48C196 50.2091 194.209 52 192 52H144C141.791 52 140 50.2091 140 48Z" fill="white"/>
</svg>
